HIERARCHY
ROOT Hips
{
	OFFSET 0.00000 0.00000 0.00000
	CHANNELS 6 Xposition Yposition Zposition Zrotation Yrotation Xrotation 
	JOINT LHipJoint
	{
		OFFSET 0 0 0
		CHANNELS 3 Zrotation Yrotation Xrotation
		JOINT LeftUpLeg
		{
			OFFSET 1.75344 -1.53157 0.77399
			CHANNELS 3 Zrotation Yrotation Xrotation
			JOINT LeftLeg
			{
				OFFSET 2.25415 -6.19323 0.00000
				CHANNELS 3 Zrotation Yrotation Xrotation
				JOINT LeftFoot
				{
					OFFSET 2.30342 -6.32861 0.00000
					CHANNELS 3 Zrotation Yrotation Xrotation
					JOINT LeftToeBase
					{
						OFFSET 0.10958 -0.30108 1.49206
						CHANNELS 3 Zrotation Yrotation Xrotation
						End Site
						{
							OFFSET 0.00000 -0.00000 0.77783
						}
					}
				}
			}
		}
	}
	JOINT RHipJoint
	{
		OFFSET 0 0 0
		CHANNELS 3 Zrotation Yrotation Xrotation
		JOINT RightUpLeg
		{
			OFFSET -1.81912 -1.53156 0.77399
			CHANNELS 3 Zrotation Yrotation Xrotation
			JOINT RightLeg
			{
				OFFSET -2.22882 -6.12365 0.00000
				CHANNELS 3 Zrotation Yrotation Xrotation
				JOINT RightFoot
				{
					OFFSET -2.21943 -6.09785 0.00000
					CHANNELS 3 Zrotation Yrotation Xrotation
					JOINT RightToeBase
					{
						OFFSET -0.18931 -0.52012 1.59379
						CHANNELS 3 Zrotation Yrotation Xrotation
						End Site
						{
							OFFSET -0.00000 -0.00000 0.84686
						}
					}
				}
			}
		}
	}
	JOINT LowerBack
	{
		OFFSET 0 0 0
		CHANNELS 3 Zrotation Yrotation Xrotation
		JOINT Spine
		{
			OFFSET -0.00200 1.66634 -0.14248
			CHANNELS 3 Zrotation Yrotation Xrotation
			JOINT Spine1
			{
				OFFSET -0.00875 1.64542 0.09514
				CHANNELS 3 Zrotation Yrotation Xrotation
				JOINT Neck
				{
					OFFSET 0 0 0
					CHANNELS 3 Zrotation Yrotation Xrotation
					JOINT Neck1
					{
						OFFSET 0.02257 1.59605 0.00839
						CHANNELS 3 Zrotation Yrotation Xrotation
						JOINT Head
						{
							OFFSET -0.10214 1.57530 -0.23335
							CHANNELS 3 Zrotation Yrotation Xrotation
							End Site
							{
								OFFSET -0.03588 1.60717 -0.08062
							}
						}
					}
				}
				JOINT LeftShoulder
				{
					OFFSET 0 0 0
					CHANNELS 3 Zrotation Yrotation Xrotation
					JOINT LeftArm
					{
						OFFSET 2.54983 1.10186 0.40078
						CHANNELS 3 Zrotation Yrotation Xrotation
						JOINT LeftForeArm
						{
							OFFSET 4.28840 -0.00000 0.00000
							CHANNELS 3 Zrotation Yrotation Xrotation
							JOINT LeftHand
							{
								OFFSET 3.06552 -0.00000 -0.00000
								CHANNELS 3 Zrotation Yrotation Xrotation
								JOINT LeftFingerBase
								{
									OFFSET 0 0 0
									CHANNELS 3 Zrotation Yrotation Xrotation
									JOINT LeftHandIndex1
									{
										OFFSET 0.75304 -0.00000 0.00000
										CHANNELS 3 Zrotation Yrotation Xrotation
										End Site
										{
											OFFSET 0.60712 -0.00000 0.00000
										}
									}
								}
								JOINT LThumb
								{
									OFFSET 0 0 0
									CHANNELS 3 Zrotation Yrotation Xrotation
									End Site
									{
										OFFSET 0.61639 -0.00000 0.61639
									}
								}
							}
						}
					}
				}
				JOINT RightShoulder
				{
					OFFSET 0 0 0
					CHANNELS 3 Zrotation Yrotation Xrotation
					JOINT RightArm
					{
						OFFSET -2.60909 1.35448 0.21802
						CHANNELS 3 Zrotation Yrotation Xrotation
						JOINT RightForeArm
						{
							OFFSET -4.52172 -0.00000 -0.00000
							CHANNELS 3 Zrotation Yrotation Xrotation
							JOINT RightHand
							{
								OFFSET -2.89140 -0.00000 0.00000
								CHANNELS 3 Zrotation Yrotation Xrotation
								JOINT RightFingerBase
								{
									OFFSET 0 0 0
									CHANNELS 3 Zrotation Yrotation Xrotation
									JOINT RightHandIndex1
									{
										OFFSET -0.68054 -0.00000 0.00000
										CHANNELS 3 Zrotation Yrotation Xrotation
										End Site
										{
											OFFSET -0.54867 -0.00000 0.00000
										}
									}
								}
								JOINT RThumb
								{
									OFFSET 0 0 0
									CHANNELS 3 Zrotation Yrotation Xrotation
									End Site
									{
										OFFSET -0.55705 -0.00000 0.55705
									}
								}
							}
						}
					}
				}
			}
		}
	}
}
MOTION
Frames: 15
Frame Time: 0.0571429
0.00 0.00 0.00 -175.0290 -8.5161 -184.3500 0.0000 0.0000 0.0000 -15.5190 -6.9984 -24.6063 13.1522 18.8364 69.5977 0.4587 -2.2981 -12.2073 0.6945 -5.3275 -14.8449 0.0000 0.0000 0.0000 32.1964 7.2811 -10.1043 -2.6200 -10.0530 29.1484 0.1276 -14.7756 -19.5472 -0.0000 0.0176 -0.0483 0.8714 -1.3041 10.8274 2.0190 -1.4941 -2.9023 1.9453 -0.7261 -9.1609 -6.4651 -4.3677 -5.6237 7.1756 -6.0505 7.7731 2.9244 -2.9274 3.6475 0.0000 0.0000 0.0000 -73.1324 4.5319 31.6103 107.3692 -58.8288 -74.9830 -0.0000 -0.0000 4.3024 8.5697 -31.0996 -4.4508 -7.1250 0.0000 -0.0000 -13.0031 -0.7030 13.5128 0.0000 0.0000 0.0000 73.9384 -23.6750 32.7777 -18.7538 29.1116 -4.9105 0.0000 0.0000 24.7565 3.0574 -54.8385 -2.5003 7.1250 -0.0000 -0.0000 79.3102 -70.7455 -58.6620
0.00 0.00 0.00 -172.6940 -3.9833 -184.0690 0.0000 0.0000 0.0000 -13.5795 -9.5720 -28.6310 7.5790 15.8007 51.0318 1.1209 4.2684 -21.9631 0.3015 -3.5304 -9.7590 0.0000 0.0000 0.0000 36.4436 6.4691 -4.3298 -2.4990 -9.8361 28.4477 -0.1401 -13.7678 -21.1031 -0.0456 1.3787 -3.7915 3.9675 -0.2931 11.1818 2.5145 0.3171 -3.1010 0.4068 -0.0421 -9.6250 -6.3380 -4.1365 -5.0740 6.9365 -5.7141 7.1961 2.8656 -2.7763 3.3490 0.0000 0.0000 0.0000 -75.4766 11.9783 30.7257 102.1514 -59.4346 -70.5035 -0.0000 -0.0000 6.1790 8.9270 -31.9133 -4.7468 -7.1250 0.0000 -0.0000 -12.8490 -1.5410 13.5312 0.0000 0.0000 0.0000 75.4778 -16.5945 30.3671 -24.8981 36.0997 -8.2298 0.0000 0.0000 15.1920 -5.1770 -55.2272 4.2562 7.1250 -0.0000 -0.0000 77.3316 -73.7153 -60.2951
0.00 0.00 0.00 -172.8710 -1.9342 -182.4620 0.0000 0.0000 0.0000 -13.3639 -15.5364 -27.6553 3.1090 10.8694 31.8407 0.6319 11.7032 -23.4574 0.0008 -0.1854 -0.5095 0.0000 0.0000 0.0000 36.7221 4.8361 -0.2588 -1.9910 -8.8473 25.3187 -0.2243 -13.7577 -21.9453 -0.0349 1.2059 -3.3155 4.5130 0.2382 10.1078 2.4444 1.0358 -3.5849 -0.1035 0.2580 -9.5003 -5.8785 -3.9605 -4.4466 5.9215 -5.3874 6.1234 2.7756 -2.6580 3.1520 -0.0000 -0.0000 0.0000 -78.3265 18.0053 29.9083 94.2625 -59.9312 -63.6906 -0.0000 -0.0000 8.4074 8.5399 -31.9023 -4.5373 -7.1250 0.0000 -0.0000 -13.0649 -1.4807 13.7572 -0.0000 -0.0000 0.0000 75.3409 -13.4480 33.5684 -35.0155 44.8232 -14.8243 0.0000 0.0000 9.2364 -11.4167 -56.0832 9.5131 7.1250 -0.0000 -0.0000 79.2055 -76.0934 -64.8265
0.00 0.00 0.00 -175.2600 0.5087 -183.8260 0.0000 0.0000 0.0000 -20.9110 -12.0558 -20.0042 2.3897 9.6346 27.8014 -1.0423 19.9107 -17.2728 1.0326 6.4633 18.1349 0.0000 0.0000 0.0000 29.1606 -2.4945 -0.4993 -6.1145 -14.5384 45.4395 -0.2423 -3.8314 -11.5177 -1.0966 6.6543 -18.6951 5.1235 0.4675 8.9745 1.7796 1.5975 -4.2795 -1.2596 0.5753 -9.5538 -5.7121 -3.1444 -0.4528 5.2674 -4.4753 5.2996 2.6046 -2.2934 2.0426 -0.0000 -0.0000 0.0000 -82.2211 16.4511 28.6980 40.3260 -48.2618 -18.6821 -0.0000 -0.0000 10.2657 15.0350 -39.2047 -9.6360 -7.1250 0.0000 -0.0000 -10.3070 -9.6331 12.0668 -0.0000 -0.0000 0.0000 78.0998 -17.8145 37.1601 -44.8732 50.7062 -22.1406 0.0000 0.0000 12.6436 -27.5105 -41.8419 19.1579 7.1250 -0.0000 -0.0000 16.8695 -74.7016 -11.8998
0.00 0.00 0.00 -176.4190 -26.2773 -179.8190 0.0000 0.0000 0.0000 -25.4830 -6.0801 -15.9906 4.0883 12.2770 36.7190 1.2788 8.8002 -26.2007 0.0475 -1.4065 -3.8681 0.0000 0.0000 0.0000 20.8340 24.5842 -4.5817 -2.1215 -9.1147 26.1546 0.9659 -19.3482 -17.0322 -3.8153 11.9104 -35.4159 0.9037 -1.9516 8.7140 2.1450 -2.3964 -3.6291 2.1575 -1.1735 -8.6906 -9.1548 -9.6291 -2.1252 6.3597 -12.7829 2.3496 3.2331 -6.3788 2.2380 -0.0000 -0.0000 0.0000 -82.4816 -3.7068 56.1710 52.8090 -54.0674 -28.4334 -0.0000 0.0000 -0.2995 18.9753 -38.2153 -12.0084 -7.1250 0.0000 -0.0000 -8.1142 -9.4480 9.4233 -0.0000 -0.0000 0.0000 65.0194 -17.0959 10.2982 -18.7592 29.1183 -4.9131 0.0000 0.0000 22.7853 -13.4964 -59.8260 11.7220 7.1250 -0.0000 -0.0000 95.1236 -76.5505 -81.4907
0.00 0.00 0.00 -214.8690 -91.3945 -142.4880 0.0000 0.0000 0.0000 -28.0985 -20.9988 -3.7807 2.6497 10.1052 29.3181 -0.3000 -20.6375 -11.9894 1.1715 -6.8702 -19.3314 0.0000 0.0000 0.0000 19.1555 24.1997 -14.0927 -4.5648 -12.8763 38.9073 -1.9522 0.7690 -26.2212 -2.3472 9.5547 -27.5464 1.2180 1.7847 7.8378 0.6619 2.5666 -4.1405 -0.3730 1.1896 -8.7637 14.3966 17.8650 -1.0499 -12.5385 24.3695 4.1413 -4.2337 12.0201 4.6664 0.0000 0.0000 0.0000 -67.6512 -2.0273 4.7270 20.3029 -31.0056 -5.6866 -0.0000 -0.0000 11.3798 16.2126 -30.8110 -8.4709 -7.1250 0.0000 -0.0000 -8.6320 -1.5448 8.9629 0.0000 0.0000 0.0000 83.0241 -8.3946 36.1619 -29.9975 40.8913 -11.4080 0.0000 0.0000 9.4468 -18.0771 -53.5401 14.7095 7.1250 -0.0000 -0.0000 67.0725 -78.2504 -55.6266
0.00 0.00 0.00 -183.9340 -105.7150 -173.5030 0.0000 0.0000 0.0000 -26.6548 -22.2168 -4.5647 2.9513 10.6158 30.9950 -2.4978 -27.6885 2.5647 2.7852 10.3389 30.0812 0.0000 0.0000 0.0000 19.6755 28.1233 -11.3694 -3.7901 -11.8757 35.2935 -1.9531 2.9295 -25.6782 -2.7091 10.2085 -29.6545 1.2715 1.8131 7.9289 0.5405 2.6069 -3.8693 -0.5359 1.2093 -8.5139 14.1052 17.3474 -1.1314 -12.3876 23.6083 3.6776 -4.2806 11.6557 4.3877 -0.0000 0.0000 0.0000 -68.6590 -10.0872 11.4037 22.7673 -33.8334 -7.0083 -0.0000 -0.0000 7.2457 19.1188 -32.4666 -10.5412 -7.1250 0.0000 -0.0000 -7.1806 -3.7392 7.6926 -0.0000 0.0000 0.0000 82.6573 -9.0116 37.4841 -31.6198 42.2419 -12.4845 0.0000 0.0000 10.3158 -13.2695 -51.5294 10.4611 7.1250 -0.0000 -0.0000 60.6478 -75.7151 -47.1508
0.00 0.00 0.00 -180.9460 -190.1840 -172.1740 0.0000 0.0000 0.0000 -17.1588 -16.2883 -18.2247 4.6531 12.9821 39.3016 1.8893 5.3581 -28.3383 0.4389 -4.2511 -11.7843 0.0000 0.0000 0.0000 28.4174 12.5885 -5.8375 -1.7497 -8.3240 23.7027 2.3263 -31.3024 -31.5112 -0.0369 -1.2403 3.4101 0.0808 1.0399 9.5188 0.1765 1.4206 -3.3501 -0.1005 0.6907 -8.9164 -6.5781 -5.8991 -2.8599 5.1272 -7.7704 2.3274 2.5757 -3.8591 1.7400 -0.0000 -0.0000 0.0000 -77.3964 -5.7384 22.5377 18.7384 -29.0923 -4.9030 -0.0000 -0.0000 15.7789 15.2063 -32.2225 -8.2466 -7.1250 0.0000 -0.0000 -9.3494 -2.7807 9.9225 -0.0000 -0.0000 0.0000 71.2722 -5.9995 21.5911 -14.0096 22.7485 -2.8318 0.0000 0.0000 33.9509 -4.8707 -58.0251 4.1345 7.1250 -0.0000 -0.0000 87.0502 -73.8581 -70.1306
0.00 0.00 0.00 -175.6780 -184.9910 -180.0090 0.0000 0.0000 0.0000 -35.5215 -15.7321 11.9016 0.7520 5.5386 15.4514 1.1288 4.3127 -22.0559 1.4197 -7.5351 -21.3108 0.0000 0.0000 0.0000 15.8245 11.1880 -29.6973 -6.4477 -14.8486 46.7532 0.6258 -19.5551 -21.9782 -0.0885 -1.9188 5.2813 -3.5477 -1.0078 9.4840 -1.1561 -1.9143 -3.4582 1.0911 -0.7636 -8.9439 -6.4701 -2.9906 -7.0545 7.0089 -4.0069 8.5831 2.9752 -1.8411 3.9850 0.0000 -0.0000 0.0000 -71.5029 -0.3942 38.2377 29.4853 -40.4481 -11.0742 -0.0000 -0.0000 6.8424 10.5292 -32.5761 -5.7148 -7.1250 0.0000 -0.0000 -11.9993 -2.4043 12.7709 0.0000 -0.0000 0.0000 72.1543 -36.8289 52.4496 -24.8058 36.0049 -8.1755 0.0000 0.0000 14.6724 4.2432 -58.5415 -3.6213 7.1250 -0.0000 -0.0000 90.2030 -70.8050 -69.8415
0.00 0.00 0.00 -175.9820 -188.6630 -179.7740 0.0000 0.0000 0.0000 -33.9155 -10.7283 21.1263 0.2243 3.0484 8.4136 0.5285 3.8124 -15.6556 2.4452 -9.7376 -28.1311 0.0000 0.0000 0.0000 12.0269 23.5813 -23.5752 -1.6531 -8.1026 23.0261 1.1689 -27.0154 -30.9836 -0.1210 -2.2425 6.1762 -5.2395 -2.2746 9.3998 -1.1821 -3.8280 -3.4846 2.3173 -1.6011 -8.7410 -6.3327 -2.7654 -7.2549 7.5729 -3.7728 8.7257 3.1399 -1.6883 4.0532 0.0000 0.0000 0.0000 -63.2384 -8.6709 38.4958 45.3289 -50.9286 -22.4938 -0.0000 -0.0000 5.6092 5.8414 -33.7331 -3.2516 -7.1250 0.0000 -0.0000 -14.6525 -2.9277 15.9002 0.0000 0.0000 0.0000 68.2754 -45.8461 61.1467 -25.8401 37.0504 -8.7912 0.0000 0.0000 14.9158 24.5054 -55.4875 -20.5868 7.1250 -0.0000 -0.0000 91.1914 -63.8630 -61.9494
0.00 0.00 0.00 -181.0910 -188.2450 -182.0680 0.0000 0.0000 0.0000 -18.4553 -0.3813 1.5222 8.6141 16.5529 54.7458 0.2179 -3.6858 10.9659 1.7482 -8.3207 -23.6924 0.0000 0.0000 0.0000 27.5514 15.4743 -9.7774 -1.0209 -6.4277 18.0307 2.2491 -25.4228 -11.0177 -0.2858 -3.4382 9.5011 -2.2559 -1.5227 8.7902 -0.5980 -2.3708 -3.6837 1.0171 -1.0421 -8.7850 -7.4907 -3.6043 -6.4991 9.0756 -5.1967 11.9704 3.7238 -2.3418 5.0841 0.0000 -0.0000 0.0000 -62.5824 2.2621 36.1026 50.1188 -53.0433 -26.2691 -0.0000 -0.0000 4.7586 8.3167 -34.0116 -4.6746 -7.1250 0.0000 -0.0000 -13.3212 -3.5018 14.4977 0.0000 -0.0000 0.0000 70.3799 -43.9746 54.7427 -26.2716 37.4757 -9.0524 0.0000 0.0000 10.3544 4.7334 -55.2570 -3.8924 7.1250 -0.0000 -0.0000 81.1908 -70.2573 -59.9103
0.00 0.00 0.00 -187.6680 -188.7890 -186.3820 0.0000 0.0000 0.0000 -10.6537 -1.1660 -12.3032 15.3895 19.4825 76.4071 -0.0588 -6.2822 -2.5927 1.8703 -8.5905 -24.5225 0.0000 0.0000 0.0000 35.3007 7.8624 -13.5424 -2.0590 -8.9879 25.7574 1.1284 -18.9329 -11.9526 -0.2682 -3.3312 9.2023 3.0591 -1.1062 8.9092 1.6458 -0.9209 -4.8342 0.2068 -0.5831 -10.2188 -7.9011 -4.1114 -4.4725 8.8114 -6.0295 13.3122 3.6869 -2.8243 5.2259 -0.0000 0.0000 0.0000 -78.9004 12.9665 33.3276 84.8872 -59.9010 -55.5737 -0.0000 -0.0000 12.2328 47.9025 -45.0815 -38.0876 -7.1250 0.0000 -0.0000 3.8261 -26.1596 -5.1287 -0.0000 0.0000 0.0000 75.9674 -40.5407 49.9110 -16.2360 25.8396 -3.7482 0.0000 0.0000 23.2909 28.9269 -54.8541 -24.3177 7.1250 -0.0000 -0.0000 92.3478 -62.3661 -61.1172
0.00 0.00 0.00 -187.3430 -187.4720 -187.7190 0.0000 0.0000 0.0000 -10.7991 -11.4940 -25.4122 16.2848 19.6658 79.0790 0.3807 -3.7283 -10.9729 1.4717 -7.6660 -21.7042 0.0000 0.0000 0.0000 36.0929 3.8880 -13.6079 -3.8225 -11.9204 35.4509 0.0930 -14.7164 -19.8625 -0.7666 -5.5911 15.6026 1.3236 -0.4332 12.0649 1.8394 -0.1757 -3.6412 1.2795 -0.0969 -10.7392 -8.0478 -4.6963 -4.0916 9.9701 -6.8306 11.0416 4.0255 -3.1915 4.5806 -0.0000 -0.0000 0.0000 -81.4926 20.0237 30.6648 54.7557 -54.7423 -30.0164 -0.0000 -0.0000 10.5844 40.5466 -46.3734 -31.7678 -7.1250 0.0000 -0.0000 0.0625 -24.1046 -0.0825 -0.0000 -0.0000 0.0000 76.8244 -26.3346 32.7507 -15.7196 25.1390 -3.5260 0.0000 0.0000 39.4093 -1.8301 -55.6020 1.5103 7.1250 -0.0000 -0.0000 79.6542 -72.5894 -61.2303
0.00 0.00 0.00 -188.1200 -183.6480 -186.4730 0.0000 0.0000 0.0000 -8.5403 -17.0337 -31.2458 10.9713 17.9210 62.6882 0.8968 1.9994 -18.7169 0.7651 -5.5858 -15.5873 0.0000 0.0000 0.0000 38.0338 4.1249 -9.5897 -3.9128 -12.0435 35.8860 -0.4874 -12.6220 -23.1210 -0.6256 -5.0612 14.0833 2.5762 0.4173 10.9978 2.0380 1.1432 -3.6016 0.5143 0.4643 -10.0612 -7.6202 -4.4764 -4.2817 9.7091 -6.4974 10.6905 3.8911 -3.0228 4.4532 0.0000 -0.0000 0.0000 -81.0640 23.7889 31.2275 29.6511 -40.5925 -11.1819 -0.0000 -0.0000 18.7125 43.3239 -49.0401 -35.4596 -7.1250 0.0000 -0.0000 0.1267 -27.7476 -0.1711 0.0000 -0.0000 0.0000 77.4814 -16.7118 25.6173 -22.4028 33.4292 -6.8064 0.0000 0.0000 24.0127 -15.1352 -54.8835 12.4756 7.1250 -0.0000 -0.0000 73.7420 -77.3515 -60.9432
0.00 0.00 0.00 -186.5230 -166.8030 -184.6790 0.0000 0.0000 0.0000 -9.4362 -34.6008 -11.1597 1.6474 8.0895 22.9863 -0.1308 14.6646 -19.3399 1.8470 -8.5397 -24.3659 0.0000 0.0000 0.0000 32.7584 1.8363 4.5699 -4.4561 -12.7438 38.4167 -0.3968 -5.8601 -15.4885 -0.1054 2.0933 -5.7635 5.8436 3.3102 7.9283 2.1133 5.2986 -4.3542 -1.8190 2.2989 -8.7650 -5.7103 -1.9525 -5.5119 7.8206 -2.9562 10.6104 3.1838 -1.2741 4.2653 0.0000 -0.0000 0.0000 -88.0639 43.8778 20.9122 17.1864 -27.1029 -4.1719 -0.0000 -0.0000 27.3559 -27.1955 -27.7848 13.4699 -7.1250 0.0000 -0.0000 -31.7883 2.3702 36.7756 0.0000 -0.0000 0.0000 71.4788 -5.8203 42.7582 -86.1081 59.9427 -56.6302 0.0000 0.0000 12.1395 -24.2109 -47.5406 18.3522 7.1250 -0.0000 -0.0000 36.7609 -78.0052 -28.9554
